<svg xmlns="http://www.w3.org/2000/svg" height="48" aria-hidden="true" class="smlIcon" style="display:block;color:var(--sml-primary-400);margin-bottom:25px" vector-effect="non-scaling-stroke" viewBox="0 0 234.76 55.06"><defs><style>.cls-1{fill:currentColor}</style></defs><g id="Ebene_2"><g id="Ebene_1-2"><g id="logo_landscape_negative"><path d="M0 31.3a2.93 2.93 0 0 1 .56-1.6 1.56 1.56 0 0 1 1.29-.82A2.48 2.48 0 0 1 3 29.3a11.12 11.12 0 0 0 1.87.87 7.64 7.64 0 0 0 2.76.45c2.09 0 3.13-.59 3.13-1.78a1.75 1.75 0 0 0-1-1.57 10.36 10.36 0 0 0-2.5-.95c-1-.25-2-.55-3-.89a5.72 5.72 0 0 1-2.53-1.74 4.65 4.65 0 0 1-1-3.12A6.32 6.32 0 0 1 2.55 16c1.22-1.27 3.14-1.9 5.78-1.9a12.79 12.79 0 0 1 4.7.81c1.37.53 2.06 1.19 2.06 2a3.34 3.34 0 0 1-.58 1.68 1.65 1.65 0 0 1-1.42 1 8.71 8.71 0 0 1-1.85-.59 8.67 8.67 0 0 0-2.83-.53A3.66 3.66 0 0 0 6.2 19a1.63 1.63 0 0 0-.76 1.28 1.33 1.33 0 0 0 .76 1.16 6.28 6.28 0 0 0 1.9.71 21.92 21.92 0 0 1 2.41.68 16.31 16.31 0 0 1 2.4 1 4.89 4.89 0 0 1 1.85 1.8 5.53 5.53 0 0 1 .75 2.95 5.69 5.69 0 0 1-2.06 4.64A8.86 8.86 0 0 1 7.69 35a12.22 12.22 0 0 1-5.44-1.1Q0 32.74 0 31.3zm18.23 1.53V16.08a1.4 1.4 0 0 1 .77-1.23 3.66 3.66 0 0 1 2-.47 3 3 0 0 1 1.72.48 1.43 1.43 0 0 1 .7 1.24v1.29A6 6 0 0 1 29 14.13a4.88 4.88 0 0 1 3.21 1.18 6.93 6.93 0 0 1 2.11 3.11 7.82 7.82 0 0 1 2.78-3.2 6.66 6.66 0 0 1 3.63-1.09A7.17 7.17 0 0 1 46 16.47a8.67 8.67 0 0 1 2.25 6.29v10.07a1.53 1.53 0 0 1-.8 1.17 3.39 3.39 0 0 1-1.93.55 3.3 3.3 0 0 1-1.89-.55 1.49 1.49 0 0 1-.83-1.19v-10a3.84 3.84 0 0 0-1-2.82 3.3 3.3 0 0 0-2.43-1A3.16 3.16 0 0 0 37 20a3.82 3.82 0 0 0-1 2.78v10.1a1.37 1.37 0 0 1-.81 1.27 4.2 4.2 0 0 1-2 .42 4.05 4.05 0 0 1-1.89-.44 1.39 1.39 0 0 1-.83-1.25V22.79a3.76 3.76 0 0 0-1-2.76A3.34 3.34 0 0 0 27 19a3.12 3.12 0 0 0-2.34 1 3.88 3.88 0 0 0-1 2.8v10a1.5 1.5 0 0 1-.77 1.2A3.74 3.74 0 0 1 19 34a1.48 1.48 0 0 1-.77-1.17zm32.51-3.7a4.89 4.89 0 0 1 2.55-4.71 15.9 15.9 0 0 1 7.36-1.37h1.74v-.57a4.57 4.57 0 0 0-.91-2.81 3.32 3.32 0 0 0-2.83-1.21 6.75 6.75 0 0 0-3.27.73 7.07 7.07 0 0 1-1.58.72 1.54 1.54 0 0 1-1.36-.85 3.58 3.58 0 0 1-.51-1.87c0-.82.73-1.54 2.19-2.15a11.85 11.85 0 0 1 4.61-.91c3.09 0 5.39.78 6.89 2.36a8.25 8.25 0 0 1 2.25 5.93v10.41a1.46 1.46 0 0 1-.76 1.23 3.39 3.39 0 0 1-1.92.51 2.82 2.82 0 0 1-1.76-.57 1.63 1.63 0 0 1-.7-1.32v-1.29c-2 2.38-4.11 3.56-6.46 3.56a5.49 5.49 0 0 1-4-1.49 5.73 5.73 0 0 1-1.53-4.33zm5.49-.69a2 2 0 0 0 .61 1.63 2.36 2.36 0 0 0 1.64.55 3.8 3.8 0 0 0 2.63-1.21 3.62 3.62 0 0 0 1.28-2.66v-.85h-.64a12.82 12.82 0 0 0-4.06.51 2 2 0 0 0-1.46 2.03zm14.91 4.39V16.08a1.4 1.4 0 0 1 .75-1.23 3.58 3.58 0 0 1 1.93-.47 3 3 0 0 1 1.76.48 1.42 1.42 0 0 1 .71 1.24v1.76a6.94 6.94 0 0 1 2.12-2.62 5 5 0 0 1 3.1-1.11h1.32a1.78 1.78 0 0 1 1.38.73 2.5 2.5 0 0 1 .62 1.67 2.6 2.6 0 0 1-.62 1.72 1.79 1.79 0 0 1-1.38.72h-1.32a4.38 4.38 0 0 0-3.42 1.74 6.78 6.78 0 0 0-1.46 4.54v7.58c0 .43-.29.82-.85 1.19a3.51 3.51 0 0 1-2 .55 3.31 3.31 0 0 1-1.87-.57 1.5 1.5 0 0 1-.77-1.17zm15.56-5.06V7.39a1.38 1.38 0 0 1 .85-1.19 3.65 3.65 0 0 1 1.87-.49 3.86 3.86 0 0 1 1.93.47 1.38 1.38 0 0 1 .83 1.17v7h5a1.17 1.17 0 0 1 1 .65 3.23 3.23 0 0 1 0 3 1.17 1.17 0 0 1-1 .65h-5v8.86a2.19 2.19 0 0 0 .53 1.66 2.72 2.72 0 0 0 1.85.49h1.66a2.14 2.14 0 0 1 1.72.71 2.48 2.48 0 0 1 .62 1.69 2.55 2.55 0 0 1-.62 1.73 2.17 2.17 0 0 1-1.72.71h-1.66q-7.86.07-7.86-6.73zm15 5.06V4.31a1.41 1.41 0 0 1 .74-1.23 3.72 3.72 0 0 1 2-.47 3.87 3.87 0 0 1 2 .47 1.4 1.4 0 0 1 .8 1.23v28.52a1.5 1.5 0 0 1-.83 1.19 3.72 3.72 0 0 1-3.86 0 1.48 1.48 0 0 1-.85-1.19zm8.3-6.59v-3.61a7.85 7.85 0 0 1 2.72-6 9.33 9.33 0 0 1 6.59-2.51 9 9 0 0 1 6.18 2.28 7.39 7.39 0 0 1 2.57 5.75 5.87 5.87 0 0 1-.32 2.08 2.08 2.08 0 0 1-1 1.16 4.17 4.17 0 0 1-1.21.42 10.92 10.92 0 0 1-1.44.08h-8.63v.64a3.63 3.63 0 0 0 1.36 2.95 5.49 5.49 0 0 0 3.61 1.13 6.9 6.9 0 0 0 3.19-.81 6.43 6.43 0 0 1 2-.81 1.78 1.78 0 0 1 1.49.83 2.8 2.8 0 0 1 .59 1.6c0 .79-.71 1.58-2.14 2.36a12.73 12.73 0 0 1-12.75-1.24 7.8 7.8 0 0 1-2.81-6.3zm5.48-3.57h6.21a1.52 1.52 0 0 0 .95-.22 1 1 0 0 0 .28-.85 2.74 2.74 0 0 0-1.09-2.26 4.38 4.38 0 0 0-5.24 0 2.69 2.69 0 0 0-1.11 2.24zm14.23 6.46a4.89 4.89 0 0 1 2.55-4.71 15.89 15.89 0 0 1 7.35-1.37h1.74v-.57a4.51 4.51 0 0 0-.91-2.81 3.31 3.31 0 0 0-2.83-1.21 6.81 6.81 0 0 0-3.27.73 7.34 7.34 0 0 1-1.57.72 1.53 1.53 0 0 1-1.36-.85 3.58 3.58 0 0 1-.51-1.87c0-.82.73-1.54 2.19-2.15a11.81 11.81 0 0 1 4.61-.91c3.09 0 5.38.78 6.88 2.36a8.25 8.25 0 0 1 2.26 5.93v10.41a1.47 1.47 0 0 1-.77 1.23 3.38 3.38 0 0 1-1.91.51 2.83 2.83 0 0 1-1.77-.54 1.66 1.66 0 0 1-.7-1.32v-1.32c-1.95 2.38-4.11 3.56-6.46 3.56a5.47 5.47 0 0 1-4-1.49 5.69 5.69 0 0 1-1.52-4.33zm5.48-.69a2.05 2.05 0 0 0 .62 1.63 2.33 2.33 0 0 0 1.63.55 3.82 3.82 0 0 0 2.64-1.21 3.61 3.61 0 0 0 1.27-2.66v-.85h-.63a12.78 12.78 0 0 0-4.06.51 2 2 0 0 0-1.47 2.03zm14.96 4.39V16.08a1.41 1.41 0 0 1 .74-1.23 3.62 3.62 0 0 1 1.94-.47 3 3 0 0 1 1.76.48 1.41 1.41 0 0 1 .7 1.24v1.76a7 7 0 0 1 2.13-2.62 5 5 0 0 1 3.1-1.11h1.32a1.78 1.78 0 0 1 1.38.73 2.5 2.5 0 0 1 .61 1.67 2.59 2.59 0 0 1-.61 1.72 1.79 1.79 0 0 1-1.38.72h-1.32a4.38 4.38 0 0 0-3.42 1.74 6.79 6.79 0 0 0-1.47 4.54v7.58c0 .43-.28.82-.85 1.19a3.48 3.48 0 0 1-1.95.55 3.34 3.34 0 0 1-1.92-.53 1.48 1.48 0 0 1-.76-1.21zm15.6 0V16.08a1.39 1.39 0 0 1 .74-1.23 3.69 3.69 0 0 1 2-.47 3 3 0 0 1 1.72.48 1.43 1.43 0 0 1 .7 1.24v1.29a5.7 5.7 0 0 1 2.19-2.32 6.44 6.44 0 0 1 3.51-.94 6.58 6.58 0 0 1 5.12 2.55 9.05 9.05 0 0 1 2.18 6.08v10.07a1.41 1.41 0 0 1-.82 1.27 3.82 3.82 0 0 1-1.94.47 3.68 3.68 0 0 1-1.89-.47 1.42 1.42 0 0 1-.83-1.27v-10a3.78 3.78 0 0 0-1.1-2.65 3.46 3.46 0 0 0-2.6-1.17 3.34 3.34 0 0 0-2.46.99 3.8 3.8 0 0 0-1 2.76v10a1.51 1.51 0 0 1-.87 1.24 3.39 3.39 0 0 1-1.93.55 3.43 3.43 0 0 1-1.94-.53 1.49 1.49 0 0 1-.78-1.19zM0 43.33h1.25L2.83 48c.25.78.52 1.59.76 2.34h.07c.24-.75.51-1.56.75-2.34L6 43.33h1.18l-2.86 8h-1.4zm8.52-2.54a.81.81 0 0 1 .87-.79.82.82 0 0 1 .87.82.87.87 0 0 1-1.74 0zm.25 2.54H10v8H8.77zm4 0h1l.11 1.46a2.79 2.79 0 0 1 2.28-1.66 1.86 1.86 0 0 1 .84.16l-.23 1.06a2.15 2.15 0 0 0-.77-.13c-.68 0-1.5.5-2.06 1.9v5.21h-1.2zm5.83 5.59v-4.6h-1.2v-.92l1.25-.07.15-2.27h1v2.27H22v1h-2.2V49c0 1 .3 1.59 1.27 1.59a2.6 2.6 0 0 0 .94-.23l.24.92a4.57 4.57 0 0 1-1.44.3c-1.66-.05-2.21-1.11-2.21-2.66zm5.14-.51v-5.08h1.2v4.93c0 1.54.47 2.22 1.59 2.22.85 0 1.45-.43 2.25-1.42v-5.73H30v8h-1l-.11-1.27a3.47 3.47 0 0 1-2.66 1.47c-1.73 0-2.49-1.07-2.49-3.12zm8.52.86c0-1.75 1.53-2.61 5-3 0-1.08-.34-2.15-1.71-2.15a4.36 4.36 0 0 0-2.45.88l-.49-.84a5.82 5.82 0 0 1 3.11-1c1.94 0 2.72 1.32 2.72 3.24v5h-1l-.11-1a4.37 4.37 0 0 1-2.69 1.18 2.16 2.16 0 0 1-2.38-2.31zm5 .16v-2.34c-2.84.33-3.8 1-3.8 2.1a1.3 1.3 0 0 0 1.48 1.36 3.5 3.5 0 0 0 2.3-1.12zm3.79.43V39.54h1.2V50c0 .4.17.57.37.57a1.38 1.38 0 0 0 .3 0l.16.92a1.86 1.86 0 0 1-.71.12c-.93-.08-1.32-.67-1.32-1.75zm7.43 0V39.54h1.21V50c0 .4.17.57.37.57a1.26 1.26 0 0 0 .29 0l.17.92a1.88 1.88 0 0 1-.72.12c-.92-.08-1.32-.67-1.32-1.75zM52 47.34c0-2.61 1.74-4.21 3.57-4.21 2 0 3.16 1.44 3.16 3.74a3.91 3.91 0 0 1-.06.73H53.2a2.78 2.78 0 0 0 2.75 3 3.54 3.54 0 0 0 2-.66l.44.81a4.65 4.65 0 0 1-2.61.82C53.69 51.53 52 50 52 47.34zm5.66-.62c0-1.71-.77-2.62-2.07-2.62a2.59 2.59 0 0 0-2.41 2.62zM60 49.27c0-1.75 1.53-2.61 5-3 0-1.08-.33-2.15-1.71-2.15a4.35 4.35 0 0 0-2.42.88l-.49-.84a5.82 5.82 0 0 1 3.11-1c1.93 0 2.72 1.32 2.72 3.24v5h-1l-.11-1a4.39 4.39 0 0 1-2.69 1.18A2.16 2.16 0 0 1 60 49.27zm5 .16v-2.34c-2.83.33-3.79 1-3.79 2.1a1.3 1.3 0 0 0 1.48 1.36A3.46 3.46 0 0 0 65 49.43zm3.8-6.1h1l.11 1.46a2.76 2.76 0 0 1 2.28-1.66 1.86 1.86 0 0 1 .84.16l-.24 1.06a2.06 2.06 0 0 0-.76-.13c-.69 0-1.51.5-2.06 1.9v5.21H68.8zm5.6 0h1l.11 1.17a3.87 3.87 0 0 1 2.7-1.37c1.68 0 2.44 1.07 2.44 3.11v5.09h-1.2V46.4c0-1.54-.47-2.22-1.59-2.22a3.19 3.19 0 0 0-2.29 1.29v5.86H74.4zm8.71-2.54a.87.87 0 1 1 .87.82.83.83 0 0 1-.87-.82zm.26 2.54h1.2v8h-1.2zm3.99 0h1l.1 1.17h.05a3.85 3.85 0 0 1 2.7-1.37c1.68 0 2.44 1.07 2.44 3.11v5.09h-1.2V46.4c0-1.54-.48-2.22-1.59-2.22a3.23 3.23 0 0 0-2.3 1.29v5.86h-1.2zm8.34 9.56a2.3 2.3 0 0 1 1.18-1.84V51a1.48 1.48 0 0 1-.71-1.31 1.9 1.9 0 0 1 .88-1.48v-.07a2.82 2.82 0 0 1 1.92-5 3.16 3.16 0 0 1 1.12.2h2.77v.94h-1.7a2.38 2.38 0 0 1 .71 1.73 2.86 2.86 0 0 1-4.12 2.5 1.23 1.23 0 0 0-.55 1c0 .52.33.91 1.44.91h1.59c1.85 0 2.76.58 2.76 1.89 0 1.46-1.55 2.76-4 2.76-1.99-.01-3.29-.81-3.29-2.18zm6.11-.41c0-.78-.59-1-1.68-1h-1.46a4.66 4.66 0 0 1-1-.13 1.77 1.77 0 0 0-.87 1.43c0 .9.89 1.48 2.4 1.48s2.61-.91 2.61-1.78zm-1-6.51a1.8 1.8 0 1 0-3.59 0 1.8 1.8 0 1 0 3.59 0zm3.46 4.6a.91.91 0 1 1 .91 1 .92.92 0 0 1-.91-1zm7.6-7.24h1l.11 1.46a2.76 2.76 0 0 1 2.28-1.66 1.88 1.88 0 0 1 .84.16l-.24 1.06a2.06 2.06 0 0 0-.76-.13c-.69 0-1.51.5-2.06 1.9v5.21h-1.21zm4.84 4.01c0-2.61 1.74-4.21 3.57-4.21 2 0 3.16 1.44 3.16 3.74a3.91 3.91 0 0 1-.06.73h-5.48a2.78 2.78 0 0 0 2.75 3 3.54 3.54 0 0 0 2-.66l.44.81a4.68 4.68 0 0 1-2.61.82c-2.09-.04-3.77-1.57-3.77-4.23zm5.66-.62c0-1.71-.78-2.62-2.07-2.62a2.58 2.58 0 0 0-2.41 2.62zm2.33 2.55c0-1.75 1.53-2.61 5-3 0-1.08-.34-2.15-1.71-2.15a4.42 4.42 0 0 0-2.43.88l-.48-.84a5.81 5.81 0 0 1 3.1-1c1.94 0 2.72 1.32 2.72 3.24v5h-1l-.11-1a4.39 4.39 0 0 1-2.7 1.18 2.16 2.16 0 0 1-2.39-2.31zm5 .16v-2.34c-2.83.33-3.79 1-3.79 2.1a1.3 1.3 0 0 0 1.47 1.36 3.5 3.5 0 0 0 2.3-1.12zm3.79.43V39.54h1.2V50c0 .4.18.57.38.57a1.26 1.26 0 0 0 .29 0l.17.92a1.88 1.88 0 0 1-.72.12c-.92-.08-1.32-.67-1.32-1.75zm6.51.56.61-.81a3.58 3.58 0 0 0 2.4 1c1.11 0 1.66-.61 1.66-1.33s-1-1.25-1.86-1.58c-1.15-.41-2.43-1-2.43-2.3s1-2.24 2.72-2.24a3.94 3.94 0 0 1 2.43.88l-.58.78a3.07 3.07 0 0 0-1.85-.71c-1.06 0-1.55.58-1.55 1.22 0 .8.88 1.11 1.8 1.45 1.18.44 2.49.9 2.49 2.43 0 1.27-1 2.35-2.87 2.35a4.76 4.76 0 0 1-2.97-1.14zm7.68-2.01v-5.08h1.21v4.93c0 1.54.47 2.22 1.58 2.22.85 0 1.45-.43 2.25-1.42v-5.73h1.21v8h-1l-.11-1.27a3.45 3.45 0 0 1-2.66 1.47c-1.72 0-2.48-1.07-2.48-3.12zm8.42-1.07a3.86 3.86 0 0 1 3.81-4.21 3.32 3.32 0 0 1 2.34.95l-.63.8a2.41 2.41 0 0 0-1.66-.74c-1.5 0-2.61 1.3-2.61 3.2s1 3.18 2.58 3.18a2.94 2.94 0 0 0 1.94-.83l.54.81a3.85 3.85 0 0 1-2.58 1c-2.12.03-3.73-1.5-3.73-4.16zm7.17 0c0-2.67 1.78-4.21 3.8-4.21a3.32 3.32 0 0 1 2.34.95l-.63.8a2.39 2.39 0 0 0-1.66-.74c-1.5 0-2.61 1.3-2.61 3.2s1 3.18 2.58 3.18a2.94 2.94 0 0 0 1.94-.83l.54.81a3.85 3.85 0 0 1-2.58 1c-2.11.03-3.72-1.5-3.72-4.16zm7.16 0c0-2.61 1.74-4.21 3.57-4.21 2 0 3.16 1.44 3.16 3.74a5.12 5.12 0 0 1 0 .73h-5.49a2.78 2.78 0 0 0 2.75 3 3.52 3.52 0 0 0 2-.66l.44.81a4.62 4.62 0 0 1-2.61.82c-2.13-.04-3.82-1.57-3.82-4.23zm5.66-.62c0-1.71-.77-2.62-2.07-2.62a2.59 2.59 0 0 0-2.41 2.62zm2.17 3.7.61-.81a3.59 3.59 0 0 0 2.41 1c1.1 0 1.65-.61 1.65-1.33s-1-1.25-1.86-1.58c-1.14-.41-2.42-1-2.42-2.3s1-2.24 2.71-2.24a4 4 0 0 1 2.44.88l-.59.78a3 3 0 0 0-1.84-.71c-1.07 0-1.56.58-1.56 1.22 0 .8.89 1.11 1.81 1.45 1.17.44 2.48.9 2.48 2.43 0 1.27-1 2.35-2.87 2.35a4.78 4.78 0 0 1-2.97-1.14zm6.87 0 .6-.81a3.63 3.63 0 0 0 2.41 1c1.1 0 1.66-.61 1.66-1.33s-1-1.25-1.86-1.58c-1.15-.41-2.43-1-2.43-2.3s1-2.24 2.71-2.24a4 4 0 0 1 2.44.88l-.58.78a3.07 3.07 0 0 0-1.85-.71c-1.07 0-1.56.58-1.56 1.22 0 .8.89 1.11 1.81 1.45 1.18.44 2.48.9 2.48 2.43 0 1.27-1 2.35-2.86 2.35a4.76 4.76 0 0 1-2.97-1.14zm7.46.15a.92.92 0 1 1 .91 1 .92.92 0 0 1-.91-1z" class="cls-1"/><path id="owl" d="M205.62 8.26a7.23 7.23 0 1 0 7.23 7.23 7.25 7.25 0 0 0-7.23-7.23zm0 11.31a4.08 4.08 0 1 1 4.08-4.08 4.08 4.08 0 0 1-4.08 4.08zm27.18-8.43 2-8.77s0-.07-.07-.07l-10.51.34a.64.64 0 0 1-.28-.06 22.62 22.62 0 0 0-21 0 .72.72 0 0 1-.29.06l-10.53-.34a.06.06 0 0 0-.06.07l2 8.77a.15.15 0 0 1 0 .11 16.53 16.53 0 0 0-1.83 7.75A44 44 0 0 0 195 33.81a28.32 28.32 0 0 0 4.22 7.75 19.93 19.93 0 0 0 5.19 4.65v.06c-.43.14.61 1.72 1.82 2.88a5.52 5.52 0 0 0 3.68 1.69c.83 0 1.64-.92 2.37-1.68.41-.42.93-.93 1.14-.93s.73.51 1.13.93c.73.76 1.54 1.68 2.37 1.68a5.52 5.52 0 0 0 3.68-1.69c1.21-1.16 2.25-2.74 1.83-2.88v-.06a19.62 19.62 0 0 0 5.19-4.65 28.32 28.32 0 0 0 4.22-7.75A44 44 0 0 0 234.58 19a16.41 16.41 0 0 0-1.77-7.74.14.14 0 0 1-.01-.12zm-19.31 18.19a.08.08 0 0 1-.15 0l-2-4.64a.09.09 0 0 1 .08-.12h3.94a.08.08 0 0 1 .08.11zm7.7-5.5a8.31 8.31 0 0 1-7.78-5.37 8.34 8.34 0 1 1 0-5.93 8.33 8.33 0 1 1 7.78 11.3zm0-15.57a7.23 7.23 0 1 0 7.23 7.23 7.24 7.24 0 0 0-7.23-7.23zm0 11.31a4.08 4.08 0 1 1 4.08-4.08 4.08 4.08 0 0 1-4.08 4.08z" class="cls-1"/></g></g></g></svg>